<?xml version="1.0" encoding="UTF-8" standalone="no"?>
<svg
   width="256"
   height="224"
   viewBox="0 0 256 224"
   version="1.1"
   preserveAspectRatio="xMidYMid"
   id="svg19"
   xmlns="http://www.w3.org/2000/svg"
   xmlns:svg="http://www.w3.org/2000/svg">
  <defs
     id="defs9">
    <linearGradient
       x1="114.64537"
       y1="233.33168"
       x2="114.64537"
       y2="0"
       id="linearGradient-1"
       gradientTransform="scale(1.0707612,0.93391504)"
       gradientUnits="userSpaceOnUse">
      <stop
         stop-color="#FFB300"
         offset="0%"
         id="stop2" />
      <stop
         stop-color="#DC3939"
         offset="61.3719707%"
         id="stop4" />
      <stop
         stop-color="#FF1BB4"
         offset="100%"
         id="stop6" />
    </linearGradient>
  </defs>
  <g
     id="g17">
    <path
       d="M 13.180523,4.5 H 242.81948 C 247.33746,4.5 251,8.154918 251,12.663488 V 210.33651 c 0,4.50857 -3.66254,8.16349 -8.18052,8.16349 H 13.180523 C 8.6625447,218.5 5,214.84508 5,210.33651 V 12.663488 C 5,8.154918 8.6625447,4.5 13.180523,4.5 Z"
       fill="#000000"
       id="path11" />
    <path
       d="M 7.1748879,14.349696 V 208.93282 c 0,3.96098 3.2141381,7.1748 7.1776991,7.1748 H 241.64741 c 3.96552,0 7.1777,-3.21182 7.1777,-7.1748 V 14.349696 c 0,-3.96099 -3.21414,-7.1748081 -7.1777,-7.1748081 H 14.352587 c -3.965515,0 -7.1776991,3.2118201 -7.1776991,7.1748081 z M 0,14.349696 C 0,6.4245776 6.4240406,0 14.352587,0 H 241.64741 C 249.57413,0 256,6.4266971 256,14.349696 V 208.93282 c 0,7.92511 -6.42404,14.34969 -14.35259,14.34969 H 14.352587 C 6.425872,223.28251 0,216.85581 0,208.93282 Z"
       fill="url(#linearGradient-1)"
       id="path13"
       style="fill:url(#linearGradient-1)" />
    <path
       d="m 76.149126,83.310027 h 38.486564 v 7.472726 H 76.149126 Z M 64.406638,63.947094 30.521476,94.39304 41.06772,67.747927 26.181309,57.707641 60.066472,27.264574 48.595903,55.610219 Z"
       fill="#FFFFFF"
       id="path15"
       style="fill:#a14262;fill-opacity:1" />
  </g>
</svg>
